<svg xmlns="http://www.w3.org/2000/svg" xmlns:xlink="http://www.w3.org/1999/xlink" width="89.144" height="70" viewBox="0 0 89.144 70">
  <defs>
    <clipPath id="clip-path">
      <rect id="Rectangle_5" data-name="Rectangle 5" width="89.144" height="70" fill="none"/>
    </clipPath>
  </defs>
  <g id="ipex-logo-blue" clip-path="url(#clip-path)">
    <path id="Path_44" data-name="Path 44" d="M0,152.848H7.723v12.959H0Zm13.072,0H25.99c6.81,0,9.2,2.577,9.2,4.429,0,3.14-4.072,4.61-9.829,4.61H20.794v3.921H13.072Zm7.723,5.953h2.984c2,0,4.107-.073,4.107-1.379,0-1.179-1.755-1.252-3.651-1.252H20.794Zm17.691-5.953H58.963v3.322H46.208v1.615H58.963v3.086H46.208v1.616H58.963v3.322H38.485Zm32.4,6.173-8.245-6.195h9.052l3.79,2.86,3.719-2.86h8.561l-8.035,6.1,9.418,6.857H80.316L75.377,162.1,70.4,165.779h-8.57Z" transform="translate(0 -109.438)" fill="#161615"/>
    <path id="Path_45" data-name="Path 45" d="M99.9,222.914a2.2,2.2,0,0,1-2.168,2.254,1.854,1.854,0,0,1-1.62-.848v.737h-.746v-5.936h.746v2.387a1.854,1.854,0,0,1,1.62-.848,2.2,2.2,0,0,1,2.168,2.254m-.746,0a1.521,1.521,0,1,0-1.517,1.534,1.5,1.5,0,0,0,1.517-1.534m5.073-2.143-1.748,4.551a1.9,1.9,0,0,1-1.9,1.448v-.694a1.134,1.134,0,0,0,1.157-.874l.078-.163-1.868-4.268h.8l1.457,3.36,1.234-3.36Zm17.6,2.051-1.45-2.052h1.3l.9,1.267.856-1.267h1.212l-1.458,2.123,1.537,2.163h-1.3l-.974-1.371-.935,1.371H120.3Zm6.135.919a.784.784,0,0,0,.808.539c.3,0,.507-.127.507-.364,0-.27-.159-.365-.761-.61-.753-.286-1.252-.7-1.252-1.371a1.3,1.3,0,0,1,1.466-1.268c.927,0,1.442.4,1.569,1.03l-.84.357a.677.677,0,0,0-.7-.515c-.293,0-.444.135-.444.333,0,.238.214.324.729.547.761.317,1.291.7,1.291,1.426a1.4,1.4,0,0,1-1.577,1.316,1.605,1.605,0,0,1-1.656-1.046Zm-14.672,1.315h1.126v-4.285h-1.126Zm0-5h1.126V218.93h-1.126Zm12.03,5h1.126v-4.285h-1.126Zm0-5h1.126V218.93h-1.126Zm-14.111-1.125h1.125v6.126h-1.125Zm-2.068,1.842v.444a1.758,1.758,0,0,0-1.333-.547,2.257,2.257,0,0,0-2.164,2.129c0,.038,0,.077,0,.116s0,.078,0,.116a2.257,2.257,0,0,0,2.164,2.13,1.757,1.757,0,0,0,1.333-.548v.444h1.133v-4.284Zm-1.223,3.4a1.257,1.257,0,1,1,1.225-1.257,1.241,1.241,0,0,1-1.225,1.257m10.661-3.4v.444a1.757,1.757,0,0,0-1.333-.547,2.257,2.257,0,0,0-2.164,2.129c0,.038,0,.077,0,.116s0,.078,0,.116a2.257,2.257,0,0,0,2.164,2.13,1.756,1.756,0,0,0,1.333-.548v.444h1.133v-4.284Zm-1.223,3.4a1.257,1.257,0,1,1,1.225-1.257,1.241,1.241,0,0,1-1.225,1.257" transform="translate(-68.29 -156.775)" fill="#4c4c4b"/>
    <path id="Path_46" data-name="Path 46" d="M126.744,0l2.389,24.129h-5.2L126.307,0Zm11.636,32.777-7.631-23.3-.168-.158,6.023,21.8-1.34-1.239L129.827,8.6l-.171-.16L133.9,28.584,132.8,27.573,128.968,7.806l-.171-.162,2.9,18.9-1.018-.948L128.152,7.048l-.169-.16,1.759,17.8h-6.415l1.741-17.8-.169.16-2.526,18.545-1.018.948,2.9-18.9-.171.162-3.836,19.767-1.093,1.012,4.241-20.142-.171.16-5.437,21.266-1.339,1.239,6.023-21.8-.169.158-7.6,23.3Z" transform="translate(-82.135 0.001)" fill="#002434"/>
  </g>
</svg>
